<svg xmlns="http://www.w3.org/2000/svg" width="17.16" height="20.563" viewBox="0 0 17.16 20.563">
  <metadata><?xpacket begin="﻿" id="W5M0MpCehiHzreSzNTczkc9d"?>
<x:xmpmeta xmlns:x="adobe:ns:meta/" x:xmptk="Adobe XMP Core 5.6-c138 79.159824, 2016/09/14-01:09:01        ">
   <rdf:RDF xmlns:rdf="http://www.w3.org/1999/02/22-rdf-syntax-ns#">
      <rdf:Description rdf:about=""/>
   </rdf:RDF>
</x:xmpmeta>
                                                                                                    
                                                                                                    
                                                                                                    
                                                                                                    
                                                                                                    
                                                                                                    
                                                                                                    
                                                                                                    
                                                                                                    
                                                                                                    
                                                                                                    
                                                                                                    
                                                                                                    
                                                                                                    
                                                                                                    
                                                                                                    
                                                                                                    
                                                                                                    
                                                                                                    
                                                                                                    
                           
<?xpacket end="w"?></metadata>
<defs>
    <style>
      .cls-1 {
        fill: #ffd54f;
        fill-rule: evenodd;
      }
    </style>
  </defs>
  <path id="chatters" class="cls-1" d="M1945.03,25.862a12.468,12.468,0,0,0-.42-2.036,6.837,6.837,0,0,0-.79-1.754,3.621,3.621,0,0,0-1.26-1.192,3.465,3.465,0,0,0-1.8-.462,5.978,5.978,0,0,1-8.38,0,3.465,3.465,0,0,0-1.8.462,3.8,3.8,0,0,0-1.26,1.192,6.507,6.507,0,0,0-.78,1.754,11.536,11.536,0,0,0-.43,2.036,20.8,20.8,0,0,0-.11,2.149,3.872,3.872,0,0,0,.84,2.5,2.5,2.5,0,0,0,2.01,1.045h11.44a2.513,2.513,0,0,0,2.02-1.045,3.921,3.921,0,0,0,.83-2.5A20.8,20.8,0,0,0,1945.03,25.862Zm-8.46-14.873a5.15,5.15,0,0,0-5.14,5.143,5.14,5.14,0,1,0,8.78-3.636A4.972,4.972,0,0,0,1936.57,10.989Z" transform="translate(-1928 -11)"/>
</svg>
